HIERARCHY
ROOT hip
{
	OFFSET 0.000000 0.000000 0.000000 
	CHANNELS 6 Xposition Yposition Zposition Xrotation Zrotation Yrotation
	JOINT abdomen
	{
		OFFSET 0.000000 3.402643 0.000000 
		CHANNELS 3 Xrotation Zrotation Yrotation
		JOINT chest
		{
			OFFSET 0.000000 8.438565 -0.680529 
			CHANNELS 3 Xrotation Zrotation Yrotation
			JOINT neck
			{
				OFFSET 0.000000 10.207942 -0.272212 
				CHANNELS 3 Xrotation Zrotation Yrotation
				JOINT head
				{
					OFFSET 0.000000 3.130431 0.000000 
					CHANNELS 3 Xrotation Zrotation Yrotation
					End Site
					{
						OFFSET 0.000000 3.130435 0.000000 
					}
				}
			}
			JOINT lCollar
			{
				OFFSET 3.470700 6.669187 -0.816635 
				CHANNELS 3 Yrotation Zrotation Xrotation
				JOINT lShldr
				{
					OFFSET 3.198488 0.000000 0.000000 
					CHANNELS 3 Zrotation Yrotation Xrotation
					JOINT lForeArm
					{
						OFFSET 10.139888 0.000000 0.000000 
						CHANNELS 3 Yrotation Zrotation Xrotation
						JOINT lHand
						{
							OFFSET 8.370511 0.000000 0.000000 
							CHANNELS 3 Zrotation Yrotation Xrotation
							End Site
							{
								OFFSET 4.083176 0.000000 0.000000 
							}
						}
					}
				}
			}
			JOINT rCollar
			{
				OFFSET -3.470700 6.669187 -0.816635 
				CHANNELS 3 Yrotation Zrotation Xrotation
				JOINT rShldr
				{
					OFFSET -3.198488 0.000000 0.000000 
					CHANNELS 3 Zrotation Yrotation Xrotation
					JOINT rForeArm
					{
						OFFSET -10.139888 0.000000 0.000000 
						CHANNELS 3 Yrotation Zrotation Xrotation
						JOINT rHand
						{
							OFFSET -8.370511 0.000000 0.000000 
							CHANNELS 3 Zrotation Yrotation Xrotation
							End Site
							{
								OFFSET -4.083176 0.000000 0.000000 
							}
						}
					}
				}
			}
		}
	}
	JOINT lThigh
	{
		OFFSET 5.308129 -1.633274 1.361059 
		CHANNELS 3 Xrotation Zrotation Yrotation
		JOINT lShin
		{
			OFFSET -2.041588 -20.007561 0.000000 
			CHANNELS 3 Xrotation Zrotation Yrotation
			JOINT lFoot
			{
				OFFSET 0.000000 -19.190928 -1.224953 
				CHANNELS 3 Xrotation Yrotation Zrotation
				End Site
				{
					OFFSET 0.000000 -2.449906 4.627600 
				}
			}
		}
	}
	JOINT rThigh
	{
		OFFSET -5.308129 -1.633274 1.361059 
		CHANNELS 3 Xrotation Zrotation Yrotation
		JOINT rShin
		{
			OFFSET 2.041588 -20.007561 0.000000 
			CHANNELS 3 Xrotation Zrotation Yrotation
			JOINT rFoot
			{
				OFFSET 0.000000 -19.190928 -1.224953 
				CHANNELS 3 Xrotation Yrotation Zrotation
				End Site
				{
					OFFSET 0.000000 -2.449906 4.627600 
				}
			}
		}
	}
}
MOTION
Frames: 8
Frame Time: 0.033333
0.469837 48.965828 1.211218 -2.066106 -2.331762 -2.502299 0.000000 0.000000 0.000000 5.862520 4.169598 0.715264 7.170509 1.367168 -0.302648 15.408333 3.229022 -2.631031 -0.153987 0.730229 5.898818 -73.223640 -7.191299 20.281366 -69.204102 2.852541 29.001724 -20.494583 1.727833 -3.165567 -1.172367 12.505712 6.162244 55.888428 10.590496 33.471539 61.277836 0.021771 19.086744 -7.037994 -5.235321 -3.424356 -4.374989 20.203386 8.721490 7.579917 2.958227 17.030832 14.071269 -1.224617 -10.192515 0.789695 -5.971053 -4.515372 6.535548 2.962221 -10.855229 -3.468612 -0.206976 5.798893 
-0.129820 49.062897 1.006846 -1.869077 -1.658903 -2.227608 0.000000 0.000000 0.000000 5.640978 4.423686 0.460630 7.113080 1.367174 -0.253834 15.126156 2.946453 -2.483713 -0.258521 0.916317 5.713525 -73.217522 -8.003983 22.591768 -70.719170 3.146008 28.543905 -19.294666 1.117134 -3.079371 -1.517684 12.705591 5.986045 54.684708 11.905584 35.082432 61.165470 0.186554 19.720512 -9.545802 -4.565813 -3.422052 -5.907563 17.710447 6.957877 10.151423 2.937831 20.953705 11.651684 -0.925632 -8.931792 0.399737 -5.993669 -4.740201 6.382883 3.335458 -11.386606 -3.339918 -0.169513 4.798444 
-0.680657 49.205166 0.798431 -1.918494 -0.995492 -1.992565 0.000000 0.000000 0.000000 5.711302 4.609133 0.587966 6.881058 1.279292 -0.165974 15.115552 2.790009 -2.639771 -0.643574 1.024368 5.781765 -72.989990 -9.672462 25.197212 -71.693619 3.196862 26.678970 -16.661791 0.987931 -3.107678 -1.285828 13.131947 6.025828 53.137859 13.082589 35.580662 61.072517 0.342569 19.032171 -11.674320 -4.462884 -3.407688 -6.640516 15.409674 6.202468 11.571019 2.392385 25.382622 10.237024 -0.653323 -7.050403 1.141457 -5.961533 -4.882899 4.635758 3.431256 -11.435754 -2.525362 -0.099721 3.877603 
-1.247218 49.270672 0.572416 -1.522893 -0.722377 -1.592040 0.000000 0.000000 0.000000 5.315395 4.882539 0.608259 6.567741 1.474602 -0.175723 15.099049 2.458213 -2.697438 -1.072835 1.379287 5.430336 -72.923065 -11.061769 27.461281 -72.049477 3.098550 25.141466 -13.907320 0.410593 -3.099177 -1.051358 13.831304 5.651081 51.679146 14.196533 35.865673 60.906517 0.559943 17.922239 -14.170093 -3.991440 -3.448473 -8.123532 13.931926 5.823766 13.045776 1.716349 29.322384 8.947718 -0.401687 -5.117614 0.906677 -5.542523 -4.600044 4.031010 3.511905 -11.729825 -2.310763 -0.077203 3.126356 
-1.761108 49.264534 0.348817 -1.202785 -0.605414 -0.771545 0.000000 0.000000 0.000000 4.809210 5.224590 0.157379 6.504949 1.650367 -0.302609 15.038862 2.312384 -2.423842 -1.309109 1.845672 5.021126 -73.364868 -12.106997 29.266855 -71.583298 2.810810 24.313465 -11.281242 -0.450808 -3.056871 -1.289280 14.053512 5.215045 50.976536 15.312165 36.581764 60.425774 0.811905 17.670145 -15.083654 -4.087056 -3.424117 -9.381080 12.865043 5.487609 14.194294 1.210301 31.111994 7.669031 -0.270795 -4.135993 0.057903 -5.143983 -4.492998 4.910844 3.718652 -12.423264 -2.852041 -0.061370 2.505493 
-2.205862 49.302052 0.156407 -1.192645 -0.234372 0.302732 0.000000 0.000000 0.000000 4.539381 5.322176 -0.333317 6.287337 1.640487 -0.742442 15.604293 1.961289 -2.315770 -1.716817 2.226806 4.825858 -73.806419 -13.462434 30.909597 -70.481888 2.429811 24.473850 -9.366395 -0.954438 -3.079043 -1.479189 13.743556 4.975668 51.053978 16.540596 36.738800 60.056862 0.823410 17.511347 -15.161606 -4.524835 -3.370166 -9.858402 11.868042 5.182449 14.497167 0.741479 31.349804 7.240031 -0.208492 -3.430102 0.087319 -5.187351 -4.869032 4.842974 4.109565 -12.934115 -2.939363 -0.066548 1.839630 
-2.623501 49.357788 -0.030976 -1.093344 0.019527 1.191410 0.000000 0.000000 0.000000 4.268488 5.390413 -0.509236 6.292896 1.572060 -0.927921 14.764359 2.478088 -2.512062 -1.957676 2.291824 4.600922 -73.720291 -15.231336 32.416779 -68.839371 1.904977 24.901928 -9.266631 -0.989257 -3.084154 -1.537490 13.524679 4.719911 51.256733 17.933264 36.547375 60.098049 0.593291 17.409348 -15.698339 -4.545388 -3.361136 -10.004206 11.515932 5.253684 14.184255 0.165704 30.578894 7.335467 -0.175679 -2.990553 0.447986 -5.137122 -5.240801 3.824919 4.620514 -13.137103 -2.574584 -0.037133 1.006783 
-2.975943 49.399174 -0.217331 -1.141706 0.331861 1.836020 0.000000 0.000000 0.000000 4.180210 5.331813 -0.518968 6.410825 1.464635 -0.966980 13.861566 3.170185 -2.748039 -2.166771 2.247990 4.531692 -73.701965 -16.942116 33.391312 -66.795174 1.124712 24.230352 -10.004521 -0.370061 -3.108031 -1.592351 13.324909 4.646530 51.136307 19.624931 36.500553 60.570431 0.170646 17.810415 -15.963105 -4.528727 -3.369840 -9.917088 11.389920 5.416404 13.775798 -0.362532 29.273870 7.737454 -0.186658 -2.785725 0.692315 -5.143169 -5.451902 3.299495 4.907749 -13.165140 -2.370052 -0.025887 0.379070 
